<?xml version='1.0' encoding='utf-8'?>
<svg xmlns="http://www.w3.org/2000/svg" version="2.0" width="1000" height="380" viewBox="0 0 1000 380">
  <rect x="0" y="0" width="100%" height="100%" fill="#ffffff" stroke="none" stroke-width="0" />
  <text x="500.0" y="18" font-family="Verdana" font-size="16" style="text-anchor: middle;">Altimetría — Balaton Park</text>
  <line x1="70" y1="330" x2="970" y2="330" stroke="#333" stroke-width="1.5" />
  <line x1="70" y1="30" x2="70" y2="330" stroke="#333" stroke-width="1.5" />
  <line x1="70.0" y1="30" x2="70.0" y2="330" stroke="#e6e6e6" stroke-width="1" />
  <text x="70.0" y="348" font-family="Verdana" font-size="11" style="text-anchor: middle; fill: #444;">0.0</text>
  <line x1="178.5121774776947" y1="30" x2="178.5121774776947" y2="330" stroke="#e6e6e6" stroke-width="1" />
  <text x="178.5121774776947" y="348" font-family="Verdana" font-size="11" style="text-anchor: middle; fill: #444;">0.5</text>
  <line x1="287.0243549553894" y1="30" x2="287.0243549553894" y2="330" stroke="#e6e6e6" stroke-width="1" />
  <text x="287.0243549553894" y="348" font-family="Verdana" font-size="11" style="text-anchor: middle; fill: #444;">1.0</text>
  <line x1="395.5365324330842" y1="30" x2="395.5365324330842" y2="330" stroke="#e6e6e6" stroke-width="1" />
  <text x="395.5365324330842" y="348" font-family="Verdana" font-size="11" style="text-anchor: middle; fill: #444;">1.5</text>
  <line x1="504.0487099107789" y1="30" x2="504.0487099107789" y2="330" stroke="#e6e6e6" stroke-width="1" />
  <text x="504.0487099107789" y="348" font-family="Verdana" font-size="11" style="text-anchor: middle; fill: #444;">2.0</text>
  <line x1="612.5608873884736" y1="30" x2="612.5608873884736" y2="330" stroke="#e6e6e6" stroke-width="1" />
  <text x="612.5608873884736" y="348" font-family="Verdana" font-size="11" style="text-anchor: middle; fill: #444;">2.5</text>
  <line x1="721.0730648661684" y1="30" x2="721.0730648661684" y2="330" stroke="#e6e6e6" stroke-width="1" />
  <text x="721.0730648661684" y="348" font-family="Verdana" font-size="11" style="text-anchor: middle; fill: #444;">3.0</text>
  <line x1="829.585242343863" y1="30" x2="829.585242343863" y2="330" stroke="#e6e6e6" stroke-width="1" />
  <text x="829.585242343863" y="348" font-family="Verdana" font-size="11" style="text-anchor: middle; fill: #444;">3.5</text>
  <line x1="938.0974198215578" y1="30" x2="938.0974198215578" y2="330" stroke="#e6e6e6" stroke-width="1" />
  <text x="938.0974198215578" y="348" font-family="Verdana" font-size="11" style="text-anchor: middle; fill: #444;">4.0</text>
  <line x1="1046.6095972992525" y1="30" x2="1046.6095972992525" y2="330" stroke="#e6e6e6" stroke-width="1" />
  <text x="1046.6095972992525" y="348" font-family="Verdana" font-size="11" style="text-anchor: middle; fill: #444;">4.5</text>
  <text x="520.0" y="368" font-family="Verdana" font-size="12" style="text-anchor: middle;">Distancia (km)</text>
  <line x1="70" y1="330.0" x2="970" y2="330.0" stroke="#efefef" stroke-width="1" />
  <text x="62" y="334.0" font-family="Verdana" font-size="11" style="text-anchor: end; fill: #444;">108</text>
  <line x1="70" y1="230.0" x2="970" y2="230.0" stroke="#efefef" stroke-width="1" />
  <text x="62" y="234.0" font-family="Verdana" font-size="11" style="text-anchor: end; fill: #444;">109</text>
  <line x1="70" y1="130.0" x2="970" y2="130.0" stroke="#efefef" stroke-width="1" />
  <text x="62" y="134.0" font-family="Verdana" font-size="11" style="text-anchor: end; fill: #444;">110</text>
  <line x1="70" y1="30.0" x2="970" y2="30.0" stroke="#efefef" stroke-width="1" />
  <text x="62" y="34.0" font-family="Verdana" font-size="11" style="text-anchor: end; fill: #444;">111</text>
  <text x="16" y="180.0" font-family="Verdana" font-size="12" style="writing-mode: tb; glyph-orientation-vertical: 0;">Altitud (m)</text>
  <polygon points="70.00,330.00 70.00,330.00 142.70,230.00 150.95,230.00 172.44,230.00 180.90,230.00 187.84,230.00 204.77,230.00 219.10,230.00 244.49,230.00 254.90,130.00 264.67,230.00 369.71,230.00 394.45,30.00 402.26,30.00 416.59,130.00 452.61,130.00 469.54,130.00 486.69,230.00 571.11,230.00 582.39,230.00 613.65,230.00 622.54,230.00 631.66,330.00 669.86,330.00 718.03,330.00 752.32,130.00 775.11,130.00 837.40,230.00 846.73,230.00 852.81,230.00 868.65,230.00 891.00,230.00 897.73,230.00 912.27,230.00 970.00,330.00 970.00,330.00" fill="#cfe8ff" fill-opacity="0.85" stroke="none" />
  <polyline points="70.00,330.00 142.70,230.00 150.95,230.00 172.44,230.00 180.90,230.00 187.84,230.00 204.77,230.00 219.10,230.00 244.49,230.00 254.90,130.00 264.67,230.00 369.71,230.00 394.45,30.00 402.26,30.00 416.59,130.00 452.61,130.00 469.54,130.00 486.69,230.00 571.11,230.00 582.39,230.00 613.65,230.00 622.54,230.00 631.66,330.00 669.86,330.00 718.03,330.00 752.32,130.00 775.11,130.00 837.40,230.00 846.73,230.00 852.81,230.00 868.65,230.00 891.00,230.00 897.73,230.00 912.27,230.00 970.00,330.00" fill="none" stroke="#0066ff" stroke-width="2.5" />
  <text x="970" y="36" font-family="Verdana" font-size="12" style="text-anchor: end;">Longitud: 4.147 km</text>
  <text x="970" y="54" font-family="Verdana" font-size="12" style="text-anchor: end;">Altitud: 108–111 m</text>
</svg>