<?xml version="1.0" encoding="utf-8"?><svg width="auto" height="6370" style="overflow:visible " version="1.1" xmlns="http://www.w3.org/2000/svg"><rect x="20" y="20" width="200" height="40" style="fill:white;stroke:black;stroke-width:1" /><text x="30" y="30" font-size="10" style="fill:blue">xs:schema</text><text x="30" y="40" font-size="8" style="fill:black">xmlns: https://www.uniovi.es</text><text x="30" y="50" font-size="8" style="fill:black">elementFormDefault: qualified</text><text x="30" y="60" font-size="8" style="fill:black">targetNamespace: https://www.uniovi.es</text><text x="30" y="70" font-size="8" style="fill:black">xmlns:xs: http://www.w3.org/2001/XMLSchema</text><rect x="240" y="20" width="200" height="40" style="fill:white;stroke:black;stroke-width:1" /><text x="250" y="30" font-size="10" style="fill:blue">xs:simpleType</text><path d="M220 40 C240 40 220 40 240 40" style="fill:transparent;stroke:black" /><text x="250" y="40" font-size="8" style="fill:black">name: tAnchuraCircuito</text><rect x="460" y="20" width="200" height="40" style="fill:white;stroke:black;stroke-width:1" /><text x="470" y="30" font-size="10" style="fill:blue">xs:restriction</text><path d="M440 40 C460 40 440 40 460 40" style="fill:transparent;stroke:black" /><text x="470" y="40" font-size="8" style="fill:black">base: xs:positiveInteger</text><rect x="680" y="20" width="200" height="40" style="fill:white;stroke:black;stroke-width:1" /><text x="690" y="30" font-size="10" style="fill:blue">xs:minInclusive</text><path d="M660 40 C680 40 660 40 680 40" style="fill:transparent;stroke:black" /><text x="690" y="40" font-size="8" style="fill:black">value: 1</text><rect x="680" y="70" width="200" height="40" style="fill:white;stroke:black;stroke-width:1" /><text x="690" y="80" font-size="10" style="fill:blue">xs:maxInclusive</text><path d="M660 40 C680 40 660 90 680 90" style="fill:transparent;stroke:black" /><text x="690" y="90" font-size="8" style="fill:black">value: 200</text><rect x="240" y="220" width="200" height="40" style="fill:white;stroke:black;stroke-width:1" /><text x="250" y="230" font-size="10" style="fill:blue">xs:simpleType</text><path d="M220 40 C240 40 220 240 240 240" style="fill:transparent;stroke:black" /><text x="250" y="240" font-size="8" style="fill:black">name: tLongitudCircuito</text><rect x="460" y="220" width="200" height="40" style="fill:white;stroke:black;stroke-width:1" /><text x="470" y="230" font-size="10" style="fill:blue">xs:restriction</text><path d="M440 240 C460 240 440 240 460 240" style="fill:transparent;stroke:black" /><text x="470" y="240" font-size="8" style="fill:black">base: xs:positiveInteger</text><rect x="680" y="220" width="200" height="40" style="fill:white;stroke:black;stroke-width:1" /><text x="690" y="230" font-size="10" style="fill:blue">xs:minInclusive</text><path d="M660 240 C680 240 660 240 680 240" style="fill:transparent;stroke:black" /><text x="690" y="240" font-size="8" style="fill:black">value: 1</text><rect x="680" y="270" width="200" height="40" style="fill:white;stroke:black;stroke-width:1" /><text x="690" y="280" font-size="10" style="fill:blue">xs:maxInclusive</text><path d="M660 240 C680 240 660 290 680 290" style="fill:transparent;stroke:black" /><text x="690" y="290" font-size="8" style="fill:black">value: 20000</text><rect x="240" y="420" width="200" height="40" style="fill:white;stroke:black;stroke-width:1" /><text x="250" y="430" font-size="10" style="fill:blue">xs:simpleType</text><path d="M220 40 C240 40 220 440 240 440" style="fill:transparent;stroke:black" /><text x="250" y="440" font-size="8" style="fill:black">name: cordAltura</text><rect x="460" y="420" width="200" height="40" style="fill:white;stroke:black;stroke-width:1" /><text x="470" y="430" font-size="10" style="fill:blue">xs:restriction</text><path d="M440 440 C460 440 440 440 460 440" style="fill:transparent;stroke:black" /><text x="470" y="440" font-size="8" style="fill:black">base: xs:float</text><rect x="680" y="420" width="200" height="40" style="fill:white;stroke:black;stroke-width:1" /><text x="690" y="430" font-size="10" style="fill:blue">xs:minInclusive</text><path d="M660 440 C680 440 660 440 680 440" style="fill:transparent;stroke:black" /><text x="690" y="440" font-size="8" style="fill:black">value: 1</text><rect x="680" y="470" width="200" height="40" style="fill:white;stroke:black;stroke-width:1" /><text x="690" y="480" font-size="10" style="fill:blue">xs:maxInclusive</text><path d="M660 440 C680 440 660 490 680 490" style="fill:transparent;stroke:black" /><text x="690" y="490" font-size="8" style="fill:black">value: 5000</text><rect x="240" y="620" width="200" height="40" style="fill:white;stroke:black;stroke-width:1" /><text x="250" y="630" font-size="10" style="fill:blue">xs:simpleType</text><path d="M220 40 C240 40 220 640 240 640" style="fill:transparent;stroke:black" /><text x="250" y="640" font-size="8" style="fill:black">name: cordLatitud</text><rect x="460" y="620" width="200" height="40" style="fill:white;stroke:black;stroke-width:1" /><text x="470" y="630" font-size="10" style="fill:blue">xs:restriction</text><path d="M440 640 C460 640 440 640 460 640" style="fill:transparent;stroke:black" /><text x="470" y="640" font-size="8" style="fill:black">base: xs:float</text><rect x="680" y="620" width="200" height="40" style="fill:white;stroke:black;stroke-width:1" /><text x="690" y="630" font-size="10" style="fill:blue">xs:minInclusive</text><path d="M660 640 C680 640 660 640 680 640" style="fill:transparent;stroke:black" /><text x="690" y="640" font-size="8" style="fill:black">value: -90</text><rect x="680" y="670" width="200" height="40" style="fill:white;stroke:black;stroke-width:1" /><text x="690" y="680" font-size="10" style="fill:blue">xs:maxInclusive</text><path d="M660 640 C680 640 660 690 680 690" style="fill:transparent;stroke:black" /><text x="690" y="690" font-size="8" style="fill:black">value: 90</text><rect x="240" y="820" width="200" height="40" style="fill:white;stroke:black;stroke-width:1" /><text x="250" y="830" font-size="10" style="fill:blue">xs:simpleType</text><path d="M220 40 C240 40 220 840 240 840" style="fill:transparent;stroke:black" /><text x="250" y="840" font-size="8" style="fill:black">name: cordLongitud</text><rect x="460" y="820" width="200" height="40" style="fill:white;stroke:black;stroke-width:1" /><text x="470" y="830" font-size="10" style="fill:blue">xs:restriction</text><path d="M440 840 C460 840 440 840 460 840" style="fill:transparent;stroke:black" /><text x="470" y="840" font-size="8" style="fill:black">base: xs:float</text><rect x="680" y="820" width="200" height="40" style="fill:white;stroke:black;stroke-width:1" /><text x="690" y="830" font-size="10" style="fill:blue">xs:minInclusive</text><path d="M660 840 C680 840 660 840 680 840" style="fill:transparent;stroke:black" /><text x="690" y="840" font-size="8" style="fill:black">value: -180</text><rect x="680" y="870" width="200" height="40" style="fill:white;stroke:black;stroke-width:1" /><text x="690" y="880" font-size="10" style="fill:blue">xs:maxInclusive</text><path d="M660 840 C680 840 660 890 680 890" style="fill:transparent;stroke:black" /><text x="690" y="890" font-size="8" style="fill:black">value: 180</text><rect x="240" y="1020" width="200" height="40" style="fill:white;stroke:black;stroke-width:1" /><text x="250" y="1030" font-size="10" style="fill:blue">xs:element</text><path d="M220 40 C240 40 220 1040 240 1040" style="fill:transparent;stroke:black" /><text x="250" y="1040" font-size="8" style="fill:black">name: circuito</text><rect x="460" y="1020" width="200" height="40" style="fill:white;stroke:black;stroke-width:1" /><text x="470" y="1030" font-size="10" style="fill:blue">xs:complexType</text><path d="M440 1040 C460 1040 440 1040 460 1040" style="fill:transparent;stroke:black" /><text x="470" y="1040" font-size="8" style="fill:black">mixed: true</text><rect x="680" y="1020" width="200" height="40" style="fill:white;stroke:black;stroke-width:1" /><text x="690" y="1030" font-size="10" style="fill:blue">xs:sequence</text><path d="M660 1040 C680 1040 660 1040 680 1040" style="fill:transparent;stroke:black" /><rect x="900" y="1020" width="200" height="40" style="fill:white;stroke:black;stroke-width:1" /><text x="910" y="1030" font-size="10" style="fill:blue">xs:any</text><path d="M880 1040 C900 1040 880 1040 900 1040" style="fill:transparent;stroke:black" /><text x="910" y="1040" font-size="8" style="fill:black">minOccurs: 0</text><text x="910" y="1050" font-size="8" style="fill:black">maxOccurs: unbounded</text><text x="910" y="1060" font-size="8" style="fill:black">namespace: https://www.uniovi.es</text><rect x="240" y="1220" width="200" height="40" style="fill:white;stroke:black;stroke-width:1" /><text x="250" y="1230" font-size="10" style="fill:blue">xs:element</text><path d="M220 40 C240 40 220 1240 240 1240" style="fill:transparent;stroke:black" /><text x="250" y="1240" font-size="8" style="fill:black">name: nombre</text><text x="250" y="1250" font-size="8" style="fill:black">type: xs:string</text><rect x="240" y="1270" width="200" height="40" style="fill:white;stroke:black;stroke-width:1" /><text x="250" y="1280" font-size="10" style="fill:blue">xs:element</text><path d="M220 40 C240 40 220 1290 240 1290" style="fill:transparent;stroke:black" /><text x="250" y="1290" font-size="8" style="fill:black">name: distancia</text><rect x="460" y="1270" width="200" height="40" style="fill:white;stroke:black;stroke-width:1" /><text x="470" y="1280" font-size="10" style="fill:blue">xs:complexType</text><path d="M440 1290 C460 1290 440 1290 460 1290" style="fill:transparent;stroke:black" /><rect x="680" y="1270" width="200" height="40" style="fill:white;stroke:black;stroke-width:1" /><text x="690" y="1280" font-size="10" style="fill:blue">xs:simpleContent</text><path d="M660 1290 C680 1290 660 1290 680 1290" style="fill:transparent;stroke:black" /><rect x="900" y="1270" width="200" height="40" style="fill:white;stroke:black;stroke-width:1" /><text x="910" y="1280" font-size="10" style="fill:blue">xs:extension</text><path d="M880 1290 C900 1290 880 1290 900 1290" style="fill:transparent;stroke:black" /><text x="910" y="1290" font-size="8" style="fill:black">base: tLongitudCircuito</text><rect x="1120" y="1270" width="200" height="40" style="fill:white;stroke:black;stroke-width:1" /><text x="1130" y="1280" font-size="10" style="fill:blue">xs:attribute</text><path d="M1100 1290 C1120 1290 1100 1290 1120 1290" style="fill:transparent;stroke:black" /><text x="1130" y="1290" font-size="8" style="fill:black">name: unidades</text><text x="1130" y="1300" font-size="8" style="fill:black">type: xs:string</text><text x="1130" y="1310" font-size="8" style="fill:black">use: required</text><rect x="240" y="1520" width="200" height="40" style="fill:white;stroke:black;stroke-width:1" /><text x="250" y="1530" font-size="10" style="fill:blue">xs:element</text><path d="M220 40 C240 40 220 1540 240 1540" style="fill:transparent;stroke:black" /><text x="250" y="1540" font-size="8" style="fill:black">name: ancho</text><rect x="460" y="1520" width="200" height="40" style="fill:white;stroke:black;stroke-width:1" /><text x="470" y="1530" font-size="10" style="fill:blue">xs:complexType</text><path d="M440 1540 C460 1540 440 1540 460 1540" style="fill:transparent;stroke:black" /><rect x="680" y="1520" width="200" height="40" style="fill:white;stroke:black;stroke-width:1" /><text x="690" y="1530" font-size="10" style="fill:blue">xs:simpleContent</text><path d="M660 1540 C680 1540 660 1540 680 1540" style="fill:transparent;stroke:black" /><rect x="900" y="1520" width="200" height="40" style="fill:white;stroke:black;stroke-width:1" /><text x="910" y="1530" font-size="10" style="fill:blue">xs:extension</text><path d="M880 1540 C900 1540 880 1540 900 1540" style="fill:transparent;stroke:black" /><text x="910" y="1540" font-size="8" style="fill:black">base: tAnchuraCircuito</text><rect x="1120" y="1520" width="200" height="40" style="fill:white;stroke:black;stroke-width:1" /><text x="1130" y="1530" font-size="10" style="fill:blue">xs:attribute</text><path d="M1100 1540 C1120 1540 1100 1540 1120 1540" style="fill:transparent;stroke:black" /><text x="1130" y="1540" font-size="8" style="fill:black">name: unidades</text><text x="1130" y="1550" font-size="8" style="fill:black">type: xs:string</text><text x="1130" y="1560" font-size="8" style="fill:black">use: required</text><rect x="240" y="1770" width="200" height="40" style="fill:white;stroke:black;stroke-width:1" /><text x="250" y="1780" font-size="10" style="fill:blue">xs:element</text><path d="M220 40 C240 40 220 1790 240 1790" style="fill:transparent;stroke:black" /><text x="250" y="1790" font-size="8" style="fill:black">name: fecha</text><text x="250" y="1800" font-size="8" style="fill:black">type: xs:date</text><rect x="240" y="1820" width="200" height="40" style="fill:white;stroke:black;stroke-width:1" /><text x="250" y="1830" font-size="10" style="fill:blue">xs:element</text><path d="M220 40 C240 40 220 1840 240 1840" style="fill:transparent;stroke:black" /><text x="250" y="1840" font-size="8" style="fill:black">name: hora</text><text x="250" y="1850" font-size="8" style="fill:black">type: xs:time</text><rect x="240" y="1870" width="200" height="40" style="fill:white;stroke:black;stroke-width:1" /><text x="250" y="1880" font-size="10" style="fill:blue">xs:element</text><path d="M220 40 C240 40 220 1890 240 1890" style="fill:transparent;stroke:black" /><text x="250" y="1890" font-size="8" style="fill:black">name: vueltas</text><text x="250" y="1900" font-size="8" style="fill:black">type: xs:string</text><rect x="240" y="1920" width="200" height="40" style="fill:white;stroke:black;stroke-width:1" /><text x="250" y="1930" font-size="10" style="fill:blue">xs:element</text><path d="M220 40 C240 40 220 1940 240 1940" style="fill:transparent;stroke:black" /><text x="250" y="1940" font-size="8" style="fill:black">name: localidad</text><text x="250" y="1950" font-size="8" style="fill:black">type: xs:string</text><rect x="240" y="1970" width="200" height="40" style="fill:white;stroke:black;stroke-width:1" /><text x="250" y="1980" font-size="10" style="fill:blue">xs:element</text><path d="M220 40 C240 40 220 1990 240 1990" style="fill:transparent;stroke:black" /><text x="250" y="1990" font-size="8" style="fill:black">name: pais</text><text x="250" y="2000" font-size="8" style="fill:black">type: xs:string</text><rect x="240" y="2020" width="200" height="40" style="fill:white;stroke:black;stroke-width:1" /><text x="250" y="2030" font-size="10" style="fill:blue">xs:element</text><path d="M220 40 C240 40 220 2040 240 2040" style="fill:transparent;stroke:black" /><text x="250" y="2040" font-size="8" style="fill:black">name: patrocinadorPrincipal</text><text x="250" y="2050" font-size="8" style="fill:black">type: xs:string</text><rect x="240" y="2070" width="200" height="40" style="fill:white;stroke:black;stroke-width:1" /><text x="250" y="2080" font-size="10" style="fill:blue">xs:element</text><path d="M220 40 C240 40 220 2090 240 2090" style="fill:transparent;stroke:black" /><text x="250" y="2090" font-size="8" style="fill:black">name: referencias</text><rect x="460" y="2070" width="200" height="40" style="fill:white;stroke:black;stroke-width:1" /><text x="470" y="2080" font-size="10" style="fill:blue">xs:complexType</text><path d="M440 2090 C460 2090 440 2090 460 2090" style="fill:transparent;stroke:black" /><rect x="680" y="2070" width="200" height="40" style="fill:white;stroke:black;stroke-width:1" /><text x="690" y="2080" font-size="10" style="fill:blue">xs:sequence</text><path d="M660 2090 C680 2090 660 2090 680 2090" style="fill:transparent;stroke:black" /><rect x="900" y="2070" width="200" height="40" style="fill:white;stroke:black;stroke-width:1" /><text x="910" y="2080" font-size="10" style="fill:blue">xs:element</text><path d="M880 2090 C900 2090 880 2090 900 2090" style="fill:transparent;stroke:black" /><text x="910" y="2090" font-size="8" style="fill:black">minOccurs: 3</text><text x="910" y="2100" font-size="8" style="fill:black">maxOccurs: unbounded</text><text x="910" y="2110" font-size="8" style="fill:black">ref: enlace</text><rect x="240" y="2270" width="200" height="40" style="fill:white;stroke:black;stroke-width:1" /><text x="250" y="2280" font-size="10" style="fill:blue">xs:element</text><path d="M220 40 C240 40 220 2290 240 2290" style="fill:transparent;stroke:black" /><text x="250" y="2290" font-size="8" style="fill:black">name: enlace</text><rect x="460" y="2270" width="200" height="40" style="fill:white;stroke:black;stroke-width:1" /><text x="470" y="2280" font-size="10" style="fill:blue">xs:complexType</text><path d="M440 2290 C460 2290 440 2290 460 2290" style="fill:transparent;stroke:black" /><rect x="680" y="2270" width="200" height="40" style="fill:white;stroke:black;stroke-width:1" /><text x="690" y="2280" font-size="10" style="fill:blue">xs:simpleContent</text><path d="M660 2290 C680 2290 660 2290 680 2290" style="fill:transparent;stroke:black" /><rect x="900" y="2270" width="200" height="40" style="fill:white;stroke:black;stroke-width:1" /><text x="910" y="2280" font-size="10" style="fill:blue">xs:extension</text><path d="M880 2290 C900 2290 880 2290 900 2290" style="fill:transparent;stroke:black" /><text x="910" y="2290" font-size="8" style="fill:black">base: xs:string</text><rect x="1120" y="2270" width="200" height="40" style="fill:white;stroke:black;stroke-width:1" /><text x="1130" y="2280" font-size="10" style="fill:blue">xs:attribute</text><path d="M1100 2290 C1120 2290 1100 2290 1120 2290" style="fill:transparent;stroke:black" /><text x="1130" y="2290" font-size="8" style="fill:black">name: alt</text><text x="1130" y="2300" font-size="8" style="fill:black">type: xs:string</text><text x="1130" y="2310" font-size="8" style="fill:black">use: required</text><rect x="240" y="2520" width="200" height="40" style="fill:white;stroke:black;stroke-width:1" /><text x="250" y="2530" font-size="10" style="fill:blue">xs:element</text><path d="M220 40 C240 40 220 2540 240 2540" style="fill:transparent;stroke:black" /><text x="250" y="2540" font-size="8" style="fill:black">name: imagenes</text><rect x="460" y="2520" width="200" height="40" style="fill:white;stroke:black;stroke-width:1" /><text x="470" y="2530" font-size="10" style="fill:blue">xs:complexType</text><path d="M440 2540 C460 2540 440 2540 460 2540" style="fill:transparent;stroke:black" /><rect x="680" y="2520" width="200" height="40" style="fill:white;stroke:black;stroke-width:1" /><text x="690" y="2530" font-size="10" style="fill:blue">xs:sequence</text><path d="M660 2540 C680 2540 660 2540 680 2540" style="fill:transparent;stroke:black" /><rect x="900" y="2520" width="200" height="40" style="fill:white;stroke:black;stroke-width:1" /><text x="910" y="2530" font-size="10" style="fill:blue">xs:element</text><path d="M880 2540 C900 2540 880 2540 900 2540" style="fill:transparent;stroke:black" /><text x="910" y="2540" font-size="8" style="fill:black">minOccurs: 1</text><text x="910" y="2550" font-size="8" style="fill:black">maxOccurs: 3</text><text x="910" y="2560" font-size="8" style="fill:black">ref: img</text><rect x="240" y="2720" width="200" height="40" style="fill:white;stroke:black;stroke-width:1" /><text x="250" y="2730" font-size="10" style="fill:blue">xs:element</text><path d="M220 40 C240 40 220 2740 240 2740" style="fill:transparent;stroke:black" /><text x="250" y="2740" font-size="8" style="fill:black">name: img</text><rect x="460" y="2720" width="200" height="40" style="fill:white;stroke:black;stroke-width:1" /><text x="470" y="2730" font-size="10" style="fill:blue">xs:complexType</text><path d="M440 2740 C460 2740 440 2740 460 2740" style="fill:transparent;stroke:black" /><rect x="680" y="2720" width="200" height="40" style="fill:white;stroke:black;stroke-width:1" /><text x="690" y="2730" font-size="10" style="fill:blue">xs:simpleContent</text><path d="M660 2740 C680 2740 660 2740 680 2740" style="fill:transparent;stroke:black" /><rect x="900" y="2720" width="200" height="40" style="fill:white;stroke:black;stroke-width:1" /><text x="910" y="2730" font-size="10" style="fill:blue">xs:extension</text><path d="M880 2740 C900 2740 880 2740 900 2740" style="fill:transparent;stroke:black" /><text x="910" y="2740" font-size="8" style="fill:black">base: xs:string</text><rect x="1120" y="2720" width="200" height="40" style="fill:white;stroke:black;stroke-width:1" /><text x="1130" y="2730" font-size="10" style="fill:blue">xs:attribute</text><path d="M1100 2740 C1120 2740 1100 2740 1120 2740" style="fill:transparent;stroke:black" /><text x="1130" y="2740" font-size="8" style="fill:black">name: alt</text><text x="1130" y="2750" font-size="8" style="fill:black">type: xs:string</text><text x="1130" y="2760" font-size="8" style="fill:black">use: required</text><rect x="240" y="2970" width="200" height="40" style="fill:white;stroke:black;stroke-width:1" /><text x="250" y="2980" font-size="10" style="fill:blue">xs:element</text><path d="M220 40 C240 40 220 2990 240 2990" style="fill:transparent;stroke:black" /><text x="250" y="2990" font-size="8" style="fill:black">name: videos</text><rect x="460" y="2970" width="200" height="40" style="fill:white;stroke:black;stroke-width:1" /><text x="470" y="2980" font-size="10" style="fill:blue">xs:complexType</text><path d="M440 2990 C460 2990 440 2990 460 2990" style="fill:transparent;stroke:black" /><rect x="680" y="2970" width="200" height="40" style="fill:white;stroke:black;stroke-width:1" /><text x="690" y="2980" font-size="10" style="fill:blue">xs:sequence</text><path d="M660 2990 C680 2990 660 2990 680 2990" style="fill:transparent;stroke:black" /><rect x="900" y="2970" width="200" height="40" style="fill:white;stroke:black;stroke-width:1" /><text x="910" y="2980" font-size="10" style="fill:blue">xs:element</text><path d="M880 2990 C900 2990 880 2990 900 2990" style="fill:transparent;stroke:black" /><text x="910" y="2990" font-size="8" style="fill:black">minOccurs: 1</text><text x="910" y="3000" font-size="8" style="fill:black">maxOccurs: 3</text><text x="910" y="3010" font-size="8" style="fill:black">ref: video</text><rect x="240" y="3170" width="200" height="40" style="fill:white;stroke:black;stroke-width:1" /><text x="250" y="3180" font-size="10" style="fill:blue">xs:element</text><path d="M220 40 C240 40 220 3190 240 3190" style="fill:transparent;stroke:black" /><text x="250" y="3190" font-size="8" style="fill:black">name: video</text><rect x="460" y="3170" width="200" height="40" style="fill:white;stroke:black;stroke-width:1" /><text x="470" y="3180" font-size="10" style="fill:blue">xs:complexType</text><path d="M440 3190 C460 3190 440 3190 460 3190" style="fill:transparent;stroke:black" /><rect x="680" y="3170" width="200" height="40" style="fill:white;stroke:black;stroke-width:1" /><text x="690" y="3180" font-size="10" style="fill:blue">xs:simpleContent</text><path d="M660 3190 C680 3190 660 3190 680 3190" style="fill:transparent;stroke:black" /><rect x="900" y="3170" width="200" height="40" style="fill:white;stroke:black;stroke-width:1" /><text x="910" y="3180" font-size="10" style="fill:blue">xs:extension</text><path d="M880 3190 C900 3190 880 3190 900 3190" style="fill:transparent;stroke:black" /><text x="910" y="3190" font-size="8" style="fill:black">base: xs:string</text><rect x="1120" y="3170" width="200" height="40" style="fill:white;stroke:black;stroke-width:1" /><text x="1130" y="3180" font-size="10" style="fill:blue">xs:attribute</text><path d="M1100 3190 C1120 3190 1100 3190 1120 3190" style="fill:transparent;stroke:black" /><text x="1130" y="3190" font-size="8" style="fill:black">name: tipo</text><text x="1130" y="3200" font-size="8" style="fill:black">type: xs:string</text><text x="1130" y="3210" font-size="8" style="fill:black">use: required</text><rect x="1120" y="3220" width="200" height="40" style="fill:white;stroke:black;stroke-width:1" /><text x="1130" y="3230" font-size="10" style="fill:blue">xs:attribute</text><path d="M1100 3190 C1120 3190 1100 3240 1120 3240" style="fill:transparent;stroke:black" /><text x="1130" y="3240" font-size="8" style="fill:black">name: titulo</text><text x="1130" y="3250" font-size="8" style="fill:black">type: xs:string</text><text x="1130" y="3260" font-size="8" style="fill:black">use: required</text><rect x="240" y="3470" width="200" height="40" style="fill:white;stroke:black;stroke-width:1" /><text x="250" y="3480" font-size="10" style="fill:blue">xs:element</text><path d="M220 40 C240 40 220 3490 240 3490" style="fill:transparent;stroke:black" /><text x="250" y="3490" font-size="8" style="fill:black">name: coordenada</text><rect x="460" y="3470" width="200" height="40" style="fill:white;stroke:black;stroke-width:1" /><text x="470" y="3480" font-size="10" style="fill:blue">xs:complexType</text><path d="M440 3490 C460 3490 440 3490 460 3490" style="fill:transparent;stroke:black" /><rect x="680" y="3470" width="200" height="40" style="fill:white;stroke:black;stroke-width:1" /><text x="690" y="3480" font-size="10" style="fill:blue">xs:sequence</text><path d="M660 3490 C680 3490 660 3490 680 3490" style="fill:transparent;stroke:black" /><rect x="900" y="3470" width="200" height="40" style="fill:white;stroke:black;stroke-width:1" /><text x="910" y="3480" font-size="10" style="fill:blue">xs:element</text><path d="M880 3490 C900 3490 880 3490 900 3490" style="fill:transparent;stroke:black" /><text x="910" y="3490" font-size="8" style="fill:black">ref: latitud</text><rect x="900" y="3520" width="200" height="40" style="fill:white;stroke:black;stroke-width:1" /><text x="910" y="3530" font-size="10" style="fill:blue">xs:element</text><path d="M880 3490 C900 3490 880 3540 900 3540" style="fill:transparent;stroke:black" /><text x="910" y="3540" font-size="8" style="fill:black">ref: longitud</text><rect x="900" y="3570" width="200" height="40" style="fill:white;stroke:black;stroke-width:1" /><text x="910" y="3580" font-size="10" style="fill:blue">xs:element</text><path d="M880 3490 C900 3490 880 3590 900 3590" style="fill:transparent;stroke:black" /><text x="910" y="3590" font-size="8" style="fill:black">ref: altitud</text><rect x="240" y="3770" width="200" height="40" style="fill:white;stroke:black;stroke-width:1" /><text x="250" y="3780" font-size="10" style="fill:blue">xs:element</text><path d="M220 40 C240 40 220 3790 240 3790" style="fill:transparent;stroke:black" /><text x="250" y="3790" font-size="8" style="fill:black">name: latitud</text><rect x="460" y="3770" width="200" height="40" style="fill:white;stroke:black;stroke-width:1" /><text x="470" y="3780" font-size="10" style="fill:blue">xs:complexType</text><path d="M440 3790 C460 3790 440 3790 460 3790" style="fill:transparent;stroke:black" /><rect x="680" y="3770" width="200" height="40" style="fill:white;stroke:black;stroke-width:1" /><text x="690" y="3780" font-size="10" style="fill:blue">xs:simpleContent</text><path d="M660 3790 C680 3790 660 3790 680 3790" style="fill:transparent;stroke:black" /><rect x="900" y="3770" width="200" height="40" style="fill:white;stroke:black;stroke-width:1" /><text x="910" y="3780" font-size="10" style="fill:blue">xs:extension</text><path d="M880 3790 C900 3790 880 3790 900 3790" style="fill:transparent;stroke:black" /><text x="910" y="3790" font-size="8" style="fill:black">base: cordLatitud</text><rect x="1120" y="3770" width="200" height="40" style="fill:white;stroke:black;stroke-width:1" /><text x="1130" y="3780" font-size="10" style="fill:blue">xs:attribute</text><path d="M1100 3790 C1120 3790 1100 3790 1120 3790" style="fill:transparent;stroke:black" /><text x="1130" y="3790" font-size="8" style="fill:black">name: unidades</text><text x="1130" y="3800" font-size="8" style="fill:black">type: xs:string</text><text x="1130" y="3810" font-size="8" style="fill:black">use: required</text><rect x="240" y="4020" width="200" height="40" style="fill:white;stroke:black;stroke-width:1" /><text x="250" y="4030" font-size="10" style="fill:blue">xs:element</text><path d="M220 40 C240 40 220 4040 240 4040" style="fill:transparent;stroke:black" /><text x="250" y="4040" font-size="8" style="fill:black">name: longitud</text><rect x="460" y="4020" width="200" height="40" style="fill:white;stroke:black;stroke-width:1" /><text x="470" y="4030" font-size="10" style="fill:blue">xs:complexType</text><path d="M440 4040 C460 4040 440 4040 460 4040" style="fill:transparent;stroke:black" /><rect x="680" y="4020" width="200" height="40" style="fill:white;stroke:black;stroke-width:1" /><text x="690" y="4030" font-size="10" style="fill:blue">xs:simpleContent</text><path d="M660 4040 C680 4040 660 4040 680 4040" style="fill:transparent;stroke:black" /><rect x="900" y="4020" width="200" height="40" style="fill:white;stroke:black;stroke-width:1" /><text x="910" y="4030" font-size="10" style="fill:blue">xs:extension</text><path d="M880 4040 C900 4040 880 4040 900 4040" style="fill:transparent;stroke:black" /><text x="910" y="4040" font-size="8" style="fill:black">base: cordLongitud</text><rect x="1120" y="4020" width="200" height="40" style="fill:white;stroke:black;stroke-width:1" /><text x="1130" y="4030" font-size="10" style="fill:blue">xs:attribute</text><path d="M1100 4040 C1120 4040 1100 4040 1120 4040" style="fill:transparent;stroke:black" /><text x="1130" y="4040" font-size="8" style="fill:black">name: unidades</text><text x="1130" y="4050" font-size="8" style="fill:black">type: xs:string</text><text x="1130" y="4060" font-size="8" style="fill:black">use: required</text><rect x="240" y="4270" width="200" height="40" style="fill:white;stroke:black;stroke-width:1" /><text x="250" y="4280" font-size="10" style="fill:blue">xs:element</text><path d="M220 40 C240 40 220 4290 240 4290" style="fill:transparent;stroke:black" /><text x="250" y="4290" font-size="8" style="fill:black">name: altitud</text><rect x="460" y="4270" width="200" height="40" style="fill:white;stroke:black;stroke-width:1" /><text x="470" y="4280" font-size="10" style="fill:blue">xs:complexType</text><path d="M440 4290 C460 4290 440 4290 460 4290" style="fill:transparent;stroke:black" /><rect x="680" y="4270" width="200" height="40" style="fill:white;stroke:black;stroke-width:1" /><text x="690" y="4280" font-size="10" style="fill:blue">xs:simpleContent</text><path d="M660 4290 C680 4290 660 4290 680 4290" style="fill:transparent;stroke:black" /><rect x="900" y="4270" width="200" height="40" style="fill:white;stroke:black;stroke-width:1" /><text x="910" y="4280" font-size="10" style="fill:blue">xs:extension</text><path d="M880 4290 C900 4290 880 4290 900 4290" style="fill:transparent;stroke:black" /><text x="910" y="4290" font-size="8" style="fill:black">base: cordAltura</text><rect x="1120" y="4270" width="200" height="40" style="fill:white;stroke:black;stroke-width:1" /><text x="1130" y="4280" font-size="10" style="fill:blue">xs:attribute</text><path d="M1100 4290 C1120 4290 1100 4290 1120 4290" style="fill:transparent;stroke:black" /><text x="1130" y="4290" font-size="8" style="fill:black">name: unidades</text><text x="1130" y="4300" font-size="8" style="fill:black">type: xs:string</text><text x="1130" y="4310" font-size="8" style="fill:black">use: required</text><rect x="240" y="4520" width="200" height="40" style="fill:white;stroke:black;stroke-width:1" /><text x="250" y="4530" font-size="10" style="fill:blue">xs:element</text><path d="M220 40 C240 40 220 4540 240 4540" style="fill:transparent;stroke:black" /><text x="250" y="4540" font-size="8" style="fill:black">name: segmentos</text><rect x="460" y="4520" width="200" height="40" style="fill:white;stroke:black;stroke-width:1" /><text x="470" y="4530" font-size="10" style="fill:blue">xs:complexType</text><path d="M440 4540 C460 4540 440 4540 460 4540" style="fill:transparent;stroke:black" /><rect x="680" y="4520" width="200" height="40" style="fill:white;stroke:black;stroke-width:1" /><text x="690" y="4530" font-size="10" style="fill:blue">xs:sequence</text><path d="M660 4540 C680 4540 660 4540 680 4540" style="fill:transparent;stroke:black" /><rect x="900" y="4520" width="200" height="40" style="fill:white;stroke:black;stroke-width:1" /><text x="910" y="4530" font-size="10" style="fill:blue">xs:element</text><path d="M880 4540 C900 4540 880 4540 900 4540" style="fill:transparent;stroke:black" /><text x="910" y="4540" font-size="8" style="fill:black">minOccurs: 1</text><text x="910" y="4550" font-size="8" style="fill:black">maxOccurs: unbounded</text><text x="910" y="4560" font-size="8" style="fill:black">ref: segmento</text><rect x="240" y="4720" width="200" height="40" style="fill:white;stroke:black;stroke-width:1" /><text x="250" y="4730" font-size="10" style="fill:blue">xs:element</text><path d="M220 40 C240 40 220 4740 240 4740" style="fill:transparent;stroke:black" /><text x="250" y="4740" font-size="8" style="fill:black">name: segmento</text><rect x="460" y="4720" width="200" height="40" style="fill:white;stroke:black;stroke-width:1" /><text x="470" y="4730" font-size="10" style="fill:blue">xs:complexType</text><path d="M440 4740 C460 4740 440 4740 460 4740" style="fill:transparent;stroke:black" /><rect x="680" y="4720" width="200" height="40" style="fill:white;stroke:black;stroke-width:1" /><text x="690" y="4730" font-size="10" style="fill:blue">xs:sequence</text><path d="M660 4740 C680 4740 660 4740 680 4740" style="fill:transparent;stroke:black" /><rect x="900" y="4720" width="200" height="40" style="fill:white;stroke:black;stroke-width:1" /><text x="910" y="4730" font-size="10" style="fill:blue">xs:element</text><path d="M880 4740 C900 4740 880 4740 900 4740" style="fill:transparent;stroke:black" /><text x="910" y="4740" font-size="8" style="fill:black">ref: distancia</text><rect x="900" y="4770" width="200" height="40" style="fill:white;stroke:black;stroke-width:1" /><text x="910" y="4780" font-size="10" style="fill:blue">xs:element</text><path d="M880 4740 C900 4740 880 4790 900 4790" style="fill:transparent;stroke:black" /><text x="910" y="4790" font-size="8" style="fill:black">ref: longitud</text><rect x="900" y="4820" width="200" height="40" style="fill:white;stroke:black;stroke-width:1" /><text x="910" y="4830" font-size="10" style="fill:blue">xs:element</text><path d="M880 4740 C900 4740 880 4840 900 4840" style="fill:transparent;stroke:black" /><text x="910" y="4840" font-size="8" style="fill:black">ref: latitud</text><rect x="900" y="4870" width="200" height="40" style="fill:white;stroke:black;stroke-width:1" /><text x="910" y="4880" font-size="10" style="fill:blue">xs:element</text><path d="M880 4740 C900 4740 880 4890 900 4890" style="fill:transparent;stroke:black" /><text x="910" y="4890" font-size="8" style="fill:black">ref: altitud</text><rect x="680" y="4970" width="200" height="40" style="fill:white;stroke:black;stroke-width:1" /><text x="690" y="4980" font-size="10" style="fill:blue">xs:attribute</text><path d="M660 4740 C680 4740 660 4990 680 4990" style="fill:transparent;stroke:black" /><text x="690" y="4990" font-size="8" style="fill:black">name: sector</text><text x="690" y="5000" font-size="8" style="fill:black">use: required</text><rect x="900" y="4970" width="200" height="40" style="fill:white;stroke:black;stroke-width:1" /><text x="910" y="4980" font-size="10" style="fill:blue">xs:simpleType</text><path d="M880 4990 C900 4990 880 4990 900 4990" style="fill:transparent;stroke:black" /><rect x="1120" y="4970" width="200" height="40" style="fill:white;stroke:black;stroke-width:1" /><text x="1130" y="4980" font-size="10" style="fill:blue">xs:restriction</text><path d="M1100 4990 C1120 4990 1100 4990 1120 4990" style="fill:transparent;stroke:black" /><text x="1130" y="4990" font-size="8" style="fill:black">base: xs:NMTOKEN</text><rect x="1340" y="4970" width="200" height="40" style="fill:white;stroke:black;stroke-width:1" /><text x="1350" y="4980" font-size="10" style="fill:blue">xs:enumeration</text><path d="M1320 4990 C1340 4990 1320 4990 1340 4990" style="fill:transparent;stroke:black" /><text x="1350" y="4990" font-size="8" style="fill:black">value: 1</text><rect x="1340" y="5020" width="200" height="40" style="fill:white;stroke:black;stroke-width:1" /><text x="1350" y="5030" font-size="10" style="fill:blue">xs:enumeration</text><path d="M1320 4990 C1340 4990 1320 5040 1340 5040" style="fill:transparent;stroke:black" /><text x="1350" y="5040" font-size="8" style="fill:black">value: 2</text><rect x="1340" y="5070" width="200" height="40" style="fill:white;stroke:black;stroke-width:1" /><text x="1350" y="5080" font-size="10" style="fill:blue">xs:enumeration</text><path d="M1320 4990 C1340 4990 1320 5090 1340 5090" style="fill:transparent;stroke:black" /><text x="1350" y="5090" font-size="8" style="fill:black">value: 3</text><rect x="240" y="5370" width="200" height="40" style="fill:white;stroke:black;stroke-width:1" /><text x="250" y="5380" font-size="10" style="fill:blue">xs:element</text><path d="M220 40 C240 40 220 5390 240 5390" style="fill:transparent;stroke:black" /><text x="250" y="5390" font-size="8" style="fill:black">name: vencedor</text><rect x="460" y="5370" width="200" height="40" style="fill:white;stroke:black;stroke-width:1" /><text x="470" y="5380" font-size="10" style="fill:blue">xs:complexType</text><path d="M440 5390 C460 5390 440 5390 460 5390" style="fill:transparent;stroke:black" /><rect x="680" y="5370" width="200" height="40" style="fill:white;stroke:black;stroke-width:1" /><text x="690" y="5380" font-size="10" style="fill:blue">xs:simpleContent</text><path d="M660 5390 C680 5390 660 5390 680 5390" style="fill:transparent;stroke:black" /><rect x="900" y="5370" width="200" height="40" style="fill:white;stroke:black;stroke-width:1" /><text x="910" y="5380" font-size="10" style="fill:blue">xs:extension</text><path d="M880 5390 C900 5390 880 5390 900 5390" style="fill:transparent;stroke:black" /><text x="910" y="5390" font-size="8" style="fill:black">base: xs:string</text><rect x="1120" y="5370" width="200" height="40" style="fill:white;stroke:black;stroke-width:1" /><text x="1130" y="5380" font-size="10" style="fill:blue">xs:attribute</text><path d="M1100 5390 C1120 5390 1100 5390 1120 5390" style="fill:transparent;stroke:black" /><text x="1130" y="5390" font-size="8" style="fill:black">name: duracion</text><text x="1130" y="5400" font-size="8" style="fill:black">type: xs:duration</text><text x="1130" y="5410" font-size="8" style="fill:black">use: required</text><rect x="240" y="5620" width="200" height="40" style="fill:white;stroke:black;stroke-width:1" /><text x="250" y="5630" font-size="10" style="fill:blue">xs:element</text><path d="M220 40 C240 40 220 5640 240 5640" style="fill:transparent;stroke:black" /><text x="250" y="5640" font-size="8" style="fill:black">name: clasificacion</text><rect x="460" y="5620" width="200" height="40" style="fill:white;stroke:black;stroke-width:1" /><text x="470" y="5630" font-size="10" style="fill:blue">xs:complexType</text><path d="M440 5640 C460 5640 440 5640 460 5640" style="fill:transparent;stroke:black" /><rect x="680" y="5620" width="200" height="40" style="fill:white;stroke:black;stroke-width:1" /><text x="690" y="5630" font-size="10" style="fill:blue">xs:sequence</text><path d="M660 5640 C680 5640 660 5640 680 5640" style="fill:transparent;stroke:black" /><rect x="900" y="5620" width="200" height="40" style="fill:white;stroke:black;stroke-width:1" /><text x="910" y="5630" font-size="10" style="fill:blue">xs:element</text><path d="M880 5640 C900 5640 880 5640 900 5640" style="fill:transparent;stroke:black" /><text x="910" y="5640" font-size="8" style="fill:black">minOccurs: 3</text><text x="910" y="5650" font-size="8" style="fill:black">maxOccurs: 3</text><text x="910" y="5660" font-size="8" style="fill:black">ref: piloto</text><rect x="240" y="5820" width="200" height="40" style="fill:white;stroke:black;stroke-width:1" /><text x="250" y="5830" font-size="10" style="fill:blue">xs:element</text><path d="M220 40 C240 40 220 5840 240 5840" style="fill:transparent;stroke:black" /><text x="250" y="5840" font-size="8" style="fill:black">name: piloto</text><rect x="460" y="5820" width="200" height="40" style="fill:white;stroke:black;stroke-width:1" /><text x="470" y="5830" font-size="10" style="fill:blue">xs:complexType</text><path d="M440 5840 C460 5840 440 5840 460 5840" style="fill:transparent;stroke:black" /><rect x="680" y="5820" width="200" height="40" style="fill:white;stroke:black;stroke-width:1" /><text x="690" y="5830" font-size="10" style="fill:blue">xs:simpleContent</text><path d="M660 5840 C680 5840 660 5840 680 5840" style="fill:transparent;stroke:black" /><rect x="900" y="5820" width="200" height="40" style="fill:white;stroke:black;stroke-width:1" /><text x="910" y="5830" font-size="10" style="fill:blue">xs:extension</text><path d="M880 5840 C900 5840 880 5840 900 5840" style="fill:transparent;stroke:black" /><text x="910" y="5840" font-size="8" style="fill:black">base: xs:string</text><rect x="1120" y="5820" width="200" height="40" style="fill:white;stroke:black;stroke-width:1" /><text x="1130" y="5830" font-size="10" style="fill:blue">xs:attribute</text><path d="M1100 5840 C1120 5840 1100 5840 1120 5840" style="fill:transparent;stroke:black" /><text x="1130" y="5840" font-size="8" style="fill:black">name: clasificacion</text><text x="1130" y="5850" font-size="8" style="fill:black">use: required</text><rect x="1340" y="5820" width="200" height="40" style="fill:white;stroke:black;stroke-width:1" /><text x="1350" y="5830" font-size="10" style="fill:blue">xs:simpleType</text><path d="M1320 5840 C1340 5840 1320 5840 1340 5840" style="fill:transparent;stroke:black" /><rect x="1560" y="5820" width="200" height="40" style="fill:white;stroke:black;stroke-width:1" /><text x="1570" y="5830" font-size="10" style="fill:blue">xs:restriction</text><path d="M1540 5840 C1560 5840 1540 5840 1560 5840" style="fill:transparent;stroke:black" /><text x="1570" y="5840" font-size="8" style="fill:black">base: xs:NMTOKEN</text><rect x="1780" y="5820" width="200" height="40" style="fill:white;stroke:black;stroke-width:1" /><text x="1790" y="5830" font-size="10" style="fill:blue">xs:enumeration</text><path d="M1760 5840 C1780 5840 1760 5840 1780 5840" style="fill:transparent;stroke:black" /><text x="1790" y="5840" font-size="8" style="fill:black">value: 1</text><rect x="1780" y="5870" width="200" height="40" style="fill:white;stroke:black;stroke-width:1" /><text x="1790" y="5880" font-size="10" style="fill:blue">xs:enumeration</text><path d="M1760 5840 C1780 5840 1760 5890 1780 5890" style="fill:transparent;stroke:black" /><text x="1790" y="5890" font-size="8" style="fill:black">value: 2</text><rect x="1780" y="5920" width="200" height="40" style="fill:white;stroke:black;stroke-width:1" /><text x="1790" y="5930" font-size="10" style="fill:blue">xs:enumeration</text><path d="M1760 5840 C1780 5840 1760 5940 1780 5940" style="fill:transparent;stroke:black" /><text x="1790" y="5940" font-size="8" style="fill:black">value: 3</text></svg>